{
  "asset": {
    "generator": "Khronos glTF Blender I/O v3.3.27",
    "version": "2.0"
  },
  "scene": 0,
  "scenes": [
    {
      "name": "Scene",
      "nodes": [0, 1, 2, 3]
    }
  ],
  "nodes": [
    {
      "mesh": 0,
      "name": "BezierCurve.053",
      "rotation": [0, 0.7071068286895752, 0, 0.7071068286895752],
      "translation": [
        -0.15481948852539062, 5.996410369873047, -4.270732879638672
      ]
    },
    {
      "mesh": 1,
      "name": "BezierCurve.054",
      "rotation": [0, 0.7071068286895752, 0, 0.7071068286895752],
      "translation": [
        -0.08051872253417969, 6.103094100952148, -3.1884372234344482
      ]
    },
    {
      "mesh": 2,
      "name": "BezierCurve.055",
      "rotation": [0, 0.7071068286895752, 0, 0.7071068286895752],
      "translation": [
        -0.08508110046386719, 5.967215061187744, -2.1918585300445557
      ]
    },
    {
      "mesh": 3,
      "name": "BezierCurve.056",
      "rotation": [0, 0.7071068286895752, 0, 0.7071068286895752],
      "translation": [
        -0.12970924377441406, 5.872396469116211, -2.677034616470337
      ]
    }
  ],
  "meshes": [
    {
      "name": "BezierCurve.060",
      "primitives": [
        {
          "attributes": {
            "POSITION": 0,
            "NORMAL": 1,
            "TEXCOORD_0": 2
          },
          "indices": 3
        }
      ]
    },
    {
      "name": "BezierCurve.061",
      "primitives": [
        {
          "attributes": {
            "POSITION": 4,
            "NORMAL": 5,
            "TEXCOORD_0": 6
          },
          "indices": 3
        }
      ]
    },
    {
      "name": "BezierCurve.062",
      "primitives": [
        {
          "attributes": {
            "POSITION": 7,
            "NORMAL": 8,
            "TEXCOORD_0": 9
          },
          "indices": 3
        }
      ]
    },
    {
      "name": "BezierCurve.063",
      "primitives": [
        {
          "attributes": {
            "POSITION": 10,
            "NORMAL": 11,
            "TEXCOORD_0": 12
          },
          "indices": 13
        }
      ]
    }
  ],
  "accessors": [
    {
      "bufferView": 0,
      "componentType": 5126,
      "count": 65,
      "max": [7.16483211517334, 0.41116803884506226, 0.04382795840501785],
      "min": [-8.772616386413574, -0.25897687673568726, -0.03715236485004425],
      "type": "VEC3"
    },
    {
      "bufferView": 1,
      "componentType": 5126,
      "count": 65,
      "type": "VEC3"
    },
    {
      "bufferView": 2,
      "componentType": 5126,
      "count": 65,
      "type": "VEC2"
    },
    {
      "bufferView": 3,
      "componentType": 5123,
      "count": 288,
      "type": "SCALAR"
    },
    {
      "bufferView": 4,
      "componentType": 5126,
      "count": 65,
      "max": [8.24864387512207, 0.303556889295578, 0.0248105488717556],
      "min": [-7.6985650062561035, -0.22153663635253906, -0.023112516850233078],
      "type": "VEC3"
    },
    {
      "bufferView": 5,
      "componentType": 5126,
      "count": 65,
      "type": "VEC3"
    },
    {
      "bufferView": 6,
      "componentType": 5126,
      "count": 65,
      "type": "VEC2"
    },
    {
      "bufferView": 7,
      "componentType": 5126,
      "count": 65,
      "max": [9.240625381469727, 0.4415908455848694, 0.10884186625480652],
      "min": [-6.701986312866211, -0.3466785252094269, -0.12753526866436005],
      "type": "VEC3"
    },
    {
      "bufferView": 8,
      "componentType": 5126,
      "count": 65,
      "type": "VEC3"
    },
    {
      "bufferView": 9,
      "componentType": 5126,
      "count": 65,
      "type": "VEC2"
    },
    {
      "bufferView": 10,
      "componentType": 5126,
      "count": 485,
      "max": [8.775999069213867, 0.5243370532989502, 0.15035207569599152],
      "min": [-7.176999568939209, -0.5722248554229736, -0.12262234091758728],
      "type": "VEC3"
    },
    {
      "bufferView": 11,
      "componentType": 5126,
      "count": 485,
      "type": "VEC3"
    },
    {
      "bufferView": 12,
      "componentType": 5126,
      "count": 485,
      "type": "VEC2"
    },
    {
      "bufferView": 13,
      "componentType": 5123,
      "count": 2304,
      "type": "SCALAR"
    }
  ],
  "bufferViews": [
    {
      "buffer": 0,
      "byteLength": 780,
      "byteOffset": 0,
      "target": 34962
    },
    {
      "buffer": 0,
      "byteLength": 780,
      "byteOffset": 780,
      "target": 34962
    },
    {
      "buffer": 0,
      "byteLength": 520,
      "byteOffset": 1560,
      "target": 34962
    },
    {
      "buffer": 0,
      "byteLength": 576,
      "byteOffset": 2080,
      "target": 34963
    },
    {
      "buffer": 0,
      "byteLength": 780,
      "byteOffset": 2656,
      "target": 34962
    },
    {
      "buffer": 0,
      "byteLength": 780,
      "byteOffset": 3436,
      "target": 34962
    },
    {
      "buffer": 0,
      "byteLength": 520,
      "byteOffset": 4216,
      "target": 34962
    },
    {
      "buffer": 0,
      "byteLength": 780,
      "byteOffset": 4736,
      "target": 34962
    },
    {
      "buffer": 0,
      "byteLength": 780,
      "byteOffset": 5516,
      "target": 34962
    },
    {
      "buffer": 0,
      "byteLength": 520,
      "byteOffset": 6296,
      "target": 34962
    },
    {
      "buffer": 0,
      "byteLength": 5820,
      "byteOffset": 6816,
      "target": 34962
    },
    {
      "buffer": 0,
      "byteLength": 5820,
      "byteOffset": 12636,
      "target": 34962
    },
    {
      "buffer": 0,
      "byteLength": 3880,
      "byteOffset": 18456,
      "target": 34962
    },
    {
      "buffer": 0,
      "byteLength": 4608,
      "byteOffset": 22336,
      "target": 34963
    }
  ],
  "buffers": [
    {
      "byteLength": 26944,
      "uri": "data:application/octet-stream;base64,"
    }
  ]
}
