<svg width="80" height="80" viewBox="0 0 80 80" fill="none" xmlns="http://www.w3.org/2000/svg">
<path d="M65.153 47.6531L42.653 70.1531C42.3046 70.5027 41.8906 70.7801 41.4348 70.9694C40.979 71.1587 40.4903 71.2561 39.9967 71.2561C39.5032 71.2561 39.0145 71.1587 38.5587 70.9694C38.1029 70.7801 37.6889 70.5027 37.3405 70.1531L14.8405 47.6531C14.136 46.9486 13.7402 45.9932 13.7402 44.9969C13.7402 44.0006 14.136 43.0451 14.8405 42.3406C15.545 41.6361 16.5005 41.2404 17.4967 41.2404C18.493 41.2404 19.4485 41.6361 20.153 42.3406L36.2499 58.4375V12.5C36.2499 11.5054 36.645 10.5516 37.3482 9.84835C38.0515 9.14509 39.0053 8.75 39.9999 8.75C40.9944 8.75 41.9483 9.14509 42.6515 9.84835C43.3548 10.5516 43.7499 11.5054 43.7499 12.5V58.4375L59.8467 42.3375C60.5512 41.633 61.5067 41.2372 62.503 41.2372C63.4993 41.2372 64.4548 41.633 65.1592 42.3375C65.8637 43.042 66.2595 43.9975 66.2595 44.9937C66.2595 45.99 65.8637 46.9455 65.1592 47.65L65.153 47.6531Z" fill="white"/>
</svg>
