<svg width="1080" height="1080" viewBox="0 0 1080 1080" fill="none" xmlns="http://www.w3.org/2000/svg">
<g clip-path="url(#clip0_407_2)">
<rect width="1080" height="1080" fill="white"/>
<rect x="775.337" y="-153.648" width="200" height="2048.63" transform="rotate(30 775.337 -153.648)" fill="#FFE9D4"/>
<rect x="73.9453" y="-136.311" width="200" height="542.318" transform="rotate(30 73.9453 -136.311)" fill="#CCECE6"/>
<rect x="1032.84" y="-201.21" width="200" height="2475.4" transform="rotate(30 1032.84 -201.21)" fill="#CCECE6"/>
<rect x="1146.48" y="-2.47363" width="200" height="2378.95" transform="rotate(30 1146.48 -2.47363)" fill="#F9F1F1"/>
<rect x="560.632" y="-181.713" width="200" height="1470.8" transform="rotate(30 560.632 -181.713)" fill="#C8FFD4"/>
<rect x="1250.4" y="217" width="200" height="1470.8" transform="rotate(30 1250.4 217)" fill="#C8FFD4"/>
<rect x="291.165" y="-113.107" width="200" height="1028.09" transform="rotate(30 291.165 -113.107)" fill="#F7A4A4"/>
<rect x="1275.04" y="573" width="201" height="1028.09" transform="rotate(30 1275.04 573)" fill="#F7A4A4"/>
<path fill-rule="evenodd" clip-rule="evenodd" d="M190.127 190L540.074 480.265L890.127 190.127L890 890.127L790 890.109L790.09 396.136L573.667 575.516L190.002 878.559L190.127 190ZM465.681 541.69L290.037 686.257L290.09 396.045L465.681 541.69Z" fill="white" stroke="#383838" stroke-width="12"/>
</g>
<defs>
<clipPath id="clip0_407_2">
<rect width="1080" height="1080" fill="white"/>
</clipPath>
</defs>
</svg>
